# xmcd
#
# Track frame offsets:
# 150
# 16487
# 34371
# 53659
# 66928
# 87880
# 100382
# 121269
# 138672
# 157895
# 175038
# 189022
# 206100
# 220006
# 240347
#
# Disc length: 3520 seconds
#
#
# Revision: 0
# Processed by: cddbd v1.5.2PL0 Copyright (c) Steve Scherf et al.
# Submitted via: Nero 7, 2, 3, 2 
#
DISCID=c60dbe0f
DTITLE=Brooks and Dunn - Red Dirt Road
DYEAR=2006
DGENRE=Country
TTITLE0=Red Dirt Road
TTITLE1=Red Dirt Road
TTITLE2=Red Dirt Road
TTITLE3=Red Dirt Road
TTITLE4=Red Dirt Road
TTITLE5=Red Dirt Road
TTITLE6=Red Dirt Road
TTITLE7=Red Dirt Road
TTITLE8=Red Dirt Road
TTITLE9=Red Dirt Road
TTITLE10=Red Dirt Road
TTITLE11=Red Dirt Road
TTITLE12=Red Dirt Road
TTITLE13=Red Dirt Road
TTITLE14=Red Dirt Road
EXTD=
EXTT0=
EXTT1=
EXTT2=
EXTT3=
EXTT4=
EXTT5=
EXTT6=
EXTT7=
EXTT8=
EXTT9=
EXTT10=
EXTT11=
EXTT12=
EXTT13=
EXTT14=
PLAYORDER=
